<mxfile host="65bd71144e">
    <diagram name="Cover" id="yhkR6pUVogOGr_vbKUKw">
        <mxGraphModel dx="816" dy="419" grid="1" gridSize="10" guides="1" tooltips="1" connect="1" arrows="1" fold="1" page="1" pageScale="1" pageWidth="827" pageHeight="1169" math="0" shadow="0">
            <root>
                <mxCell id="0"/>
                <mxCell id="1" parent="0"/>
                <mxCell id="xEqCbCpqzMmOeNpdaJ_V-1" value="Logo" style="rounded=0;whiteSpace=wrap;html=1;" parent="1" vertex="1">
                    <mxGeometry x="40" y="40" width="120" height="60" as="geometry"/>
                </mxCell>
                <mxCell id="xEqCbCpqzMmOeNpdaJ_V-2" value="Login Btn" style="rounded=0;whiteSpace=wrap;html=1;" parent="1" vertex="1">
                    <mxGeometry x="720" y="60" width="80" height="30" as="geometry"/>
                </mxCell>
                <mxCell id="xEqCbCpqzMmOeNpdaJ_V-4" value="" style="rounded=1;whiteSpace=wrap;html=1;" parent="1" vertex="1">
                    <mxGeometry x="59" y="130" width="710" height="160" as="geometry"/>
                </mxCell>
                <mxCell id="xEqCbCpqzMmOeNpdaJ_V-7" value="Btn(酒店)" style="rounded=0;whiteSpace=wrap;html=1;" parent="1" vertex="1">
                    <mxGeometry x="210" y="140" width="100" height="30" as="geometry"/>
                </mxCell>
                <mxCell id="xEqCbCpqzMmOeNpdaJ_V-8" value="Btn(機票)" style="rounded=0;whiteSpace=wrap;html=1;" parent="1" vertex="1">
                    <mxGeometry x="360" y="140" width="100" height="30" as="geometry"/>
                </mxCell>
                <mxCell id="xEqCbCpqzMmOeNpdaJ_V-9" value="Btn(租車)" style="rounded=0;whiteSpace=wrap;html=1;" parent="1" vertex="1">
                    <mxGeometry x="500" y="140" width="100" height="30" as="geometry"/>
                </mxCell>
                <mxCell id="xEqCbCpqzMmOeNpdaJ_V-10" value="目的地(Input search)" style="rounded=0;whiteSpace=wrap;html=1;" parent="1" vertex="1">
                    <mxGeometry x="70" y="205" width="200" height="35" as="geometry"/>
                </mxCell>
                <mxCell id="xEqCbCpqzMmOeNpdaJ_V-11" value="Date(Input search)" style="rounded=0;whiteSpace=wrap;html=1;" parent="1" vertex="1">
                    <mxGeometry x="280" y="205" width="210" height="35" as="geometry"/>
                </mxCell>
                <mxCell id="xEqCbCpqzMmOeNpdaJ_V-12" value="人數" style="rounded=0;whiteSpace=wrap;html=1;" parent="1" vertex="1">
                    <mxGeometry x="500" y="205" width="190" height="35" as="geometry"/>
                </mxCell>
                <mxCell id="xEqCbCpqzMmOeNpdaJ_V-13" value="Btn(search)" style="rounded=0;whiteSpace=wrap;html=1;" parent="1" vertex="1">
                    <mxGeometry x="710" y="210" width="50" height="30" as="geometry"/>
                </mxCell>
                <mxCell id="xEqCbCpqzMmOeNpdaJ_V-15" style="edgeStyle=orthogonalEdgeStyle;rounded=0;orthogonalLoop=1;jettySize=auto;html=1;exitX=0.5;exitY=1;exitDx=0;exitDy=0;" parent="1" source="xEqCbCpqzMmOeNpdaJ_V-4" target="xEqCbCpqzMmOeNpdaJ_V-4" edge="1">
                    <mxGeometry relative="1" as="geometry"/>
                </mxCell>
                <mxCell id="ALOZ-e7BVdD-AdIb4WJP-1" value="Member Register" style="rounded=1;whiteSpace=wrap;html=1;" vertex="1" parent="1">
                    <mxGeometry x="220" y="40" width="120" height="60" as="geometry"/>
                </mxCell>
                <mxCell id="ALOZ-e7BVdD-AdIb4WJP-2" value="Register Btn" style="rounded=0;whiteSpace=wrap;html=1;" vertex="1" parent="1">
                    <mxGeometry x="720" y="10" width="80" height="30" as="geometry"/>
                </mxCell>
            </root>
        </mxGraphModel>
    </diagram>
    <diagram id="1iG303gjy2WjJgN7xIVB" name="Login ">
        <mxGraphModel dx="816" dy="419" grid="1" gridSize="10" guides="1" tooltips="1" connect="1" arrows="1" fold="1" page="1" pageScale="1" pageWidth="827" pageHeight="1169" math="0" shadow="0">
            <root>
                <mxCell id="0"/>
                <mxCell id="1" parent="0"/>
                <mxCell id="Z8B-DlxmjDhE_zD-ZElz-1" value="Welcome to Login Page&amp;nbsp;" style="rounded=1;whiteSpace=wrap;html=1;" vertex="1" parent="1">
                    <mxGeometry x="210" y="20" width="330" height="60" as="geometry"/>
                </mxCell>
                <mxCell id="apKsVcWTIQd-ivfoW4pK-1" value="Login Info" style="swimlane;whiteSpace=wrap;html=1;" vertex="1" parent="1">
                    <mxGeometry x="70" y="150" width="200" height="200" as="geometry"/>
                </mxCell>
            </root>
        </mxGraphModel>
    </diagram>
    <diagram id="pebGbIhg3EfqXcOt4Ti-" name="Register ">
        <mxGraphModel dx="816" dy="419" grid="1" gridSize="10" guides="1" tooltips="1" connect="1" arrows="1" fold="1" page="1" pageScale="1" pageWidth="827" pageHeight="1169" math="0" shadow="0">
            <root>
                <mxCell id="0"/>
                <mxCell id="1" parent="0"/>
                <mxCell id="41Lo1-z4r4BuDf3XjSDh-1" value="Welcome to Register Page&amp;nbsp;" style="rounded=1;whiteSpace=wrap;html=1;" vertex="1" parent="1">
                    <mxGeometry x="260" y="30" width="330" height="60" as="geometry"/>
                </mxCell>
                <mxCell id="4uIzNu_wvSoYgzJDzj_d-1" value="Register Form" style="shape=internalStorage;whiteSpace=wrap;html=1;backgroundOutline=1;" vertex="1" parent="1">
                    <mxGeometry x="100" y="150" width="230" height="240" as="geometry"/>
                </mxCell>
            </root>
        </mxGraphModel>
    </diagram>
</mxfile>